# xmcd
#
# Track frame offsets:
#	150
#	11960
#	28190
#	39635
#	50925
#	62412
#	81137
#	95862
#	109525
#	121742
#	134177
#	149267
#	162492
#	176820
#	188985
#	204177
#	216875
#	228067
#	242972
#	257300
#
# Disc length: 3630 seconds
#
# Revision: 1
# Processed by: cddbd v1.5.2PL0 Copyright (c) Steve Scherf et al.
# Submitted via: audiograbber 1.83.01
#
DISCID=260e2c14
DTITLE=Glen Campbell - The Legendary Glen Campbell [CD2]
DYEAR=2011
DGENRE=Country
TTITLE0=All I Have To Do Is Dream (featuring Bobbie Gentry)
TTITLE1=Oh Happy Day
TTITLE2=Everything A Man Could Ever Need
TTITLE3=It's Only Make Believe
TTITLE4=Dream Baby (How Long Must I Dream)
TTITLE5=The Last Time I Saw Her
TTITLE6=I Say A Little Prayer - By The Time I Go To Phoenix (Featuring Anne Mur
TTITLE6=ray)
TTITLE7=Oklahoma Sunday Morning
TTITLE8=Manhattan Kansas
TTITLE9=I Will Never Pass This Way Again
TTITLE10=One Last Time
TTITLE11=I Knew Jesus (Before He Was A Star)
TTITLE12=Bring Back My Yesterday
TTITLE13=Wherefore And Why
TTITLE14=Houston (I'm Comin' Too See You)
TTITLE15=Boneparte's Retreat
TTITLE16=It's A Sin When You Love Somebody
TTITLE17=Rhinestone Cowboy
TTITLE18=Country Boy (You Got Your Feet In L.A.)
TTITLE19=Don't Pull Your Love - Then You Can Tell Me Goodbye
EXTD=P 2011 EMI Music Special Markets\nC 2011 The Reader's Digest Association, 
EXTD=Inc.\n509990-27061-2-2 SSTC08431
EXTT0=
EXTT1=
EXTT2=
EXTT3=
EXTT4=
EXTT5=
EXTT6=
EXTT7=
EXTT8=
EXTT9=
EXTT10=
EXTT11=
EXTT12=
EXTT13=
EXTT14=
EXTT15=
EXTT16=
EXTT17=
EXTT18=
EXTT19=
PLAYORDER=
